<svg xmlns="http://www.w3.org/2000/svg" xmlns:xlink="http://www.w3.org/1999/xlink" width="1080" zoomAndPan="magnify" viewBox="0 0 810 809.999993" height="1080" preserveAspectRatio="xMidYMid meet" version="1.0"><defs><clipPath id="a54fb7b8e2"><path d="M 364 138 L 451.339844 138 L 451.339844 702.75 L 364 702.75 Z M 364 138 " clip-rule="nonzero"/></clipPath></defs><rect x="-81" width="972" fill="#ffffff" y="-80.999999" height="971.999992" fill-opacity="1"/><rect x="-81" width="972" fill="#ffffff" y="-80.999999" height="971.999992" fill-opacity="1"/><g clip-path="url(#a54fb7b8e2)"><path fill="#192b39" d="M 378.621094 138.402344 C 379.550781 138.519531 379.167969 141.707031 379.15625 142.4375 C 378.996094 146.335938 377.433594 156.730469 379.171875 159.835938 C 379.375 160.140625 379.515625 160.203125 379.8125 160.195312 L 380.035156 160.195312 L 380.484375 160.203125 C 381.773438 160.175781 383.105469 159.992188 384.28125 159.484375 C 384.71875 159.261719 385.191406 159.0625 385.527344 158.734375 L 387.363281 159.699219 C 387.296875 160.113281 387.242188 160.570312 387.191406 161.011719 C 386.996094 163.089844 386.820312 165.542969 387.492188 167.46875 C 387.953125 167.941406 388.875 168.289062 389.53125 168.613281 C 390.398438 169.007812 391.410156 169.726562 391.316406 170.847656 C 391.300781 171.085938 391.214844 171.269531 391.203125 171.507812 C 391.132812 172.386719 391.296875 173.707031 391.867188 174.398438 C 392.386719 174.917969 393.015625 175.257812 393.675781 175.605469 C 394.019531 175.792969 394.4375 175.964844 394.796875 176.113281 C 395.53125 176.386719 395.667969 177.085938 395.992188 177.714844 C 396.378906 178.511719 396.789062 179.300781 397.214844 180.074219 C 398.898438 183.046875 400.855469 186.058594 403.460938 188.261719 C 405.40625 189.871094 407.574219 190.789062 409.8125 189.421875 C 413.433594 187.421875 416.894531 185.074219 420.054688 182.421875 C 423.5625 179.464844 426.871094 176.011719 429.097656 172.023438 C 430.191406 170.0625 430.96875 167.988281 431.324219 165.882812 C 431.75 163.476562 435.269531 163.238281 435.851562 165.839844 C 437.273438 174.402344 434.832031 183.496094 429.734375 190.46875 C 427.226562 193.941406 424.085938 196.917969 420.640625 199.433594 C 418.960938 200.601562 417.1875 201.746094 415.453125 202.808594 C 407.09375 207.96875 398.277344 212.472656 388.984375 215.707031 C 385.648438 216.871094 382.492188 218.640625 379.785156 220.90625 C 372.066406 227.359375 368.933594 236.984375 369.609375 246.84375 C 369.785156 249.652344 370.296875 252.515625 370.960938 255.261719 C 376.828125 277.410156 384.277344 299.148438 392.734375 320.453125 C 398.738281 335.195312 405.273438 349.875 413.894531 363.273438 C 417.144531 368.222656 420.679688 373.046875 425.132812 376.949219 C 428.5 379.847656 433.300781 382.785156 437.730469 380.769531 C 443.914062 377.394531 437.09375 361.800781 434.960938 356.871094 C 426.6875 338.699219 415.742188 321.875 404.613281 305.339844 C 400.125 298.746094 395.511719 292.1875 390.796875 285.765625 L 394.121094 283.832031 C 404.511719 305.269531 415.476562 326.507812 427.550781 347.046875 C 432.707031 355.621094 438.019531 364.230469 444.328125 371.953125 L 444.875 372.628906 L 445.441406 373.273438 L 446.578125 374.5625 C 446.761719 374.78125 446.960938 374.980469 447.15625 375.175781 L 447.742188 375.777344 L 448.332031 376.378906 L 448.644531 376.703125 C 448.808594 376.871094 448.96875 377.039062 449.125 377.214844 C 451.238281 379.636719 451.648438 383.335938 450.132812 386.175781 C 449.957031 386.484375 449.785156 386.796875 449.574219 387.082031 L 449.363281 387.367188 L 449.265625 387.5 L 449.195312 387.585938 L 448.097656 388.976562 C 414.34375 432.742188 379.054688 498.042969 393.214844 554.597656 C 394.875 561.425781 397.542969 567.988281 400.375 574.402344 C 416.476562 611.769531 431.441406 649.765625 443.480469 688.652344 L 444.511719 692.09375 C 445.539062 695.535156 446.539062 698.984375 447.449219 702.46875 C 447.492188 702.632812 447.394531 702.796875 447.230469 702.839844 C 447.070312 702.882812 446.90625 702.789062 446.859375 702.632812 C 443.894531 693.550781 440.625 684.558594 437.265625 675.609375 C 424.210938 640.960938 409.539062 606.914062 394.136719 573.253906 C 385.144531 554.375 382.421875 532.921875 384.621094 512.253906 C 389.476562 468.613281 411.125 428.75 436.757812 393.847656 C 439.28125 390.476562 441.890625 387.113281 444.558594 383.84375 L 444.628906 383.757812 C 444.652344 383.722656 444.648438 383.722656 444.664062 383.707031 C 444.71875 383.632812 444.78125 383.558594 444.824219 383.476562 C 445.347656 382.636719 445.175781 381.484375 444.449219 380.804688 L 444.203125 380.546875 C 443.863281 380.179688 443.222656 379.527344 442.886719 379.167969 C 438.140625 373.972656 434.121094 368.03125 430.355469 362.171875 C 414.988281 337.683594 402.5 311.667969 390.578125 285.390625 C 390.148438 284.417969 390.585938 283.277344 391.558594 282.84375 C 392.421875 282.460938 393.410156 282.761719 393.929688 283.507812 C 403.054688 296.757812 411.71875 310.25 419.921875 324.078125 C 424.003906 330.996094 427.960938 337.992188 431.609375 345.15625 C 435.226562 352.375 438.71875 359.671875 440.910156 367.496094 C 442.3125 372.65625 443.820312 381.269531 436.976562 383 C 418.5 387.394531 396.269531 335.9375 389.777344 321.699219 C 381.71875 303.28125 374.535156 284.484375 368.5 265.300781 C 367.457031 261.914062 366.417969 258.488281 365.558594 255.039062 C 364.445312 250.40625 363.929688 245.613281 364.269531 240.832031 C 365.140625 226.996094 373.699219 215.292969 386.839844 210.6875 C 387.53125 210.433594 388.25 210.199219 388.941406 209.941406 C 397.238281 206.921875 405.164062 202.902344 412.71875 198.34375 C 413.964844 197.582031 415.238281 196.820312 416.453125 196.007812 C 424.808594 190.660156 430.769531 182.195312 431.480469 172.148438 C 431.609375 170.355469 431.605469 168.550781 431.332031 166.78125 L 435.859375 166.710938 C 433.816406 176.953125 424.894531 184.621094 416.5 189.972656 C 414.671875 191.109375 412.804688 192.199219 410.859375 193.128906 C 408.960938 193.984375 406.683594 193.992188 404.777344 193.21875 C 399.144531 190.9375 395.101562 183.433594 392.828125 178.105469 L 393.660156 178.929688 C 393.179688 178.714844 392.730469 178.503906 392.273438 178.25 C 391.402344 177.761719 390.492188 177.183594 389.796875 176.429688 L 389.617188 176.21875 C 389.171875 175.652344 388.933594 175.074219 388.761719 174.515625 C 388.4375 173.386719 388.351562 172.347656 388.492188 171.171875 C 388.511719 171.019531 388.539062 170.855469 388.578125 170.695312 L 388.648438 170.441406 C 388.558594 170.707031 388.621094 171.085938 388.8125 171.285156 C 387.8125 170.597656 386.230469 170.125 385.429688 168.953125 C 385.261719 168.71875 385.128906 168.425781 385.054688 168.148438 C 384.730469 167.0625 384.65625 166.050781 384.636719 165.058594 C 384.625 163.089844 384.855469 161.214844 385.230469 159.296875 L 387.066406 160.261719 C 386.933594 160.390625 386.875 160.429688 386.785156 160.503906 C 386.550781 160.675781 386.300781 160.839844 386.050781 160.972656 C 384.191406 161.976562 382.023438 162.207031 379.957031 162.078125 C 377.527344 162.132812 376.992188 159.523438 376.867188 157.644531 C 376.625 152.476562 377.703125 147.441406 378.3125 142.363281 C 378.417969 141.292969 378.613281 140.21875 378.488281 139.15625 C 378.476562 139.097656 378.457031 139.039062 378.445312 139.007812 C 378.4375 138.988281 378.433594 138.980469 378.433594 138.980469 C 378.4375 138.988281 378.457031 139 378.484375 139.003906 C 378.316406 138.964844 378.214844 138.804688 378.25 138.636719 C 378.285156 138.472656 378.449219 138.371094 378.613281 138.40625 Z M 378.621094 138.402344 " fill-opacity="1" fill-rule="nonzero"/></g><path fill="#192b39" d="M 422.625 121.625 C 422.90625 115.851562 422.425781 108.484375 417.800781 104.5625 C 415.132812 102.378906 411.785156 101.867188 408.273438 101.929688 L 410.925781 99.277344 C 410.992188 101.1875 410.980469 103.320312 411.019531 105.246094 C 411.050781 107.855469 410.988281 110.582031 410.894531 113.203125 L 410.800781 115.191406 L 410.789062 115.410156 C 410.730469 116.84375 409.410156 117.921875 407.996094 117.703125 C 403.289062 116.851562 398.769531 115.152344 394.441406 113.175781 C 390.179688 111.210938 386.082031 108.941406 382.210938 106.300781 C 378.582031 103.84375 375.164062 100.941406 372.226562 97.6875 C 371.238281 96.589844 370.296875 95.417969 369.394531 94.238281 C 368.882812 93.527344 368.363281 92.742188 367.863281 92.019531 C 367.429688 91.28125 366.902344 90.4375 366.476562 89.691406 C 366.03125 88.808594 365.246094 87.367188 364.890625 86.433594 L 364.175781 84.757812 L 368.390625 84.941406 C 367.210938 88.859375 366.425781 92.910156 365.992188 96.976562 C 365.1875 104.980469 366.191406 113.105469 369.847656 120.265625 C 371.613281 123.738281 374.023438 126.863281 376.917969 129.59375 L 372.160156 131.035156 C 373.1875 127.8125 374.246094 124.601562 375.332031 121.398438 L 376.429688 118.199219 L 376.523438 117.929688 C 377.425781 115.480469 380.96875 116.210938 380.878906 118.777344 C 380.558594 124.949219 380.136719 131.160156 379.492188 137.316406 C 379.390625 138.199219 379.300781 139.082031 379.183594 139.964844 C 379.164062 140.132812 379.007812 140.253906 378.839844 140.230469 C 378.699219 140.210938 378.59375 140.105469 378.574219 139.972656 C 378.4375 139.09375 378.320312 138.210938 378.199219 137.332031 C 377.636719 132.957031 377.164062 128.5 376.785156 124.117188 C 376.625 122.355469 376.484375 120.59375 376.351562 118.832031 L 380.796875 119.410156 L 380.085938 122.71875 C 379.605469 124.921875 379.113281 127.125 378.601562 129.320312 C 378.347656 130.417969 378.097656 131.515625 377.832031 132.613281 C 377.457031 134.15625 375.902344 135.105469 374.355469 134.730469 C 373.859375 134.613281 373.445312 134.371094 373.078125 134.054688 C 367.601562 129.714844 363.335938 123.550781 361.371094 116.78125 C 358.339844 106.644531 359.65625 94.585938 363.539062 84.84375 C 363.726562 84.398438 364.03125 83.660156 364.242188 83.226562 C 365.023438 81.222656 367.878906 81.355469 368.460938 83.410156 C 368.613281 83.984375 368.960938 85.230469 369.109375 85.769531 C 369.269531 86.242188 369.730469 87.59375 369.90625 88.09375 C 370.191406 88.816406 370.554688 89.648438 370.851562 90.375 L 371.21875 91.113281 C 374.839844 98.722656 381.5 104.636719 389.140625 108.066406 C 395.25 110.789062 401.914062 112.128906 408.546875 112.675781 L 405.746094 115.191406 C 405.691406 114.199219 405.609375 112.207031 405.585938 111.210938 C 405.507812 108.601562 405.5 105.875 405.550781 103.253906 C 405.570312 101.882812 405.585938 100.507812 405.625 99.136719 C 405.667969 97.707031 406.847656 96.582031 408.273438 96.621094 C 412.015625 96.691406 415.9375 97.554688 419.039062 99.820312 C 422.175781 102.066406 424.105469 105.71875 424.65625 109.484375 C 425.09375 112.289062 424.921875 115.105469 424.367188 117.84375 C 424.085938 119.183594 423.730469 120.496094 423.21875 121.773438 C 423.15625 121.929688 422.976562 122.007812 422.820312 121.945312 C 422.6875 121.890625 422.613281 121.757812 422.628906 121.625 Z M 422.625 121.625 " fill-opacity="1" fill-rule="nonzero"/></svg>